<?xml version="1.0" encoding="UTF-8"?>
<svg xmlns="http://www.w3.org/2000/svg" xmlns:xlink="http://www.w3.org/1999/xlink" width="52px" height="50px" viewBox="0 0 52 50" version="1.1">
<g id="surface1">
<path style=" stroke:none;fill-rule:nonzero;fill:rgb(100%,83.137256%,0.392157%);fill-opacity:1;" d="M 27.257812 0.855469 L 33.894531 16.523438 L 50.734375 18.042969 C 51.28125 18.089844 51.742188 18.460938 51.910156 18.984375 C 52.078125 19.511719 51.917969 20.085938 51.503906 20.445312 L 38.757812 31.671875 L 42.515625 48.328125 C 42.59375 48.679688 42.53125 49.050781 42.339844 49.355469 C 42.148438 49.664062 41.84375 49.878906 41.492188 49.957031 C 41.136719 50.035156 40.761719 49.964844 40.453125 49.761719 L 25.988281 41.035156 L 11.480469 49.804688 C 11.175781 49.992188 10.808594 50.046875 10.460938 49.960938 C 10.113281 49.871094 9.816406 49.648438 9.632812 49.339844 C 9.449219 49.035156 9.390625 48.667969 9.476562 48.320312 L 13.238281 31.667969 L 0.507812 20.445312 C -0.046875 19.945312 -0.109375 19.085938 0.371094 18.515625 C 0.628906 18.25 0.976562 18.097656 1.339844 18.085938 L 18.117188 16.566406 L 24.753906 0.855469 C 24.972656 0.351562 25.464844 0.0273438 26.007812 0.0273438 C 26.546875 0.0273438 27.039062 0.351562 27.257812 0.855469 Z M 27.257812 0.855469 "/>
</g>
</svg>
